<svg width="170" height="169" viewBox="0 0 170 169" fill="none" xmlns="http://www.w3.org/2000/svg">
<g filter="url(#filter0_d_16_51)">
<path fill-rule="evenodd" clip-rule="evenodd" d="M84.9964 50C65.6696 50 50 65.7069 50 85.0854C50 100.585 60.0275 113.734 73.9363 118.375C75.6869 118.696 76.3248 117.613 76.3248 116.682C76.3248 115.851 76.2957 113.644 76.2782 110.717C66.542 112.836 64.4885 106.013 64.4885 106.013C62.8966 101.962 60.6013 100.883 60.6013 100.883C57.4234 98.7047 60.8416 98.7485 60.8416 98.7485C64.3545 98.9981 66.2027 102.365 66.2027 102.365C69.3253 107.725 74.3951 106.176 76.3889 105.28C76.7079 103.013 77.6094 101.467 78.6114 100.589C70.8399 99.7047 62.668 96.6929 62.668 83.2503C62.668 79.4211 64.0326 76.2881 66.2711 73.8355C65.9114 72.9479 64.7099 69.3814 66.6134 64.5507C66.6134 64.5507 69.5525 63.6076 76.2389 68.1478C79.0309 67.3697 82.0253 66.9799 85.0007 66.9668C87.9733 66.9799 90.9677 67.3697 93.764 68.1478C100.446 63.6076 103.379 64.5507 103.379 64.5507C105.289 69.3814 104.087 72.9479 103.727 73.8355C105.97 76.2881 107.326 79.4211 107.326 83.2503C107.326 96.728 99.1411 99.693 91.3434 100.562C92.6018 101.645 93.7203 103.785 93.7203 107.06C93.7203 111.749 93.6781 115.533 93.6781 116.682C93.6781 117.622 94.3073 118.714 96.0841 118.371C109.981 113.721 120 100.581 120 85.0854C120 65.7069 104.329 50 84.9964 50Z" fill="#48D3F2"/>
</g>
<defs>
<filter id="filter0_d_16_51" x="0" y="0" width="170" height="168.435" filterUnits="userSpaceOnUse" color-interpolation-filters="sRGB">
<feFlood flood-opacity="0" result="BackgroundImageFix"/>
<feColorMatrix in="SourceAlpha" type="matrix" values="0 0 0 0 0 0 0 0 0 0 0 0 0 0 0 0 0 0 127 0" result="hardAlpha"/>
<feOffset/>
<feGaussianBlur stdDeviation="25"/>
<feComposite in2="hardAlpha" operator="out"/>
<feColorMatrix type="matrix" values="0 0 0 0 0 0 0 0 0 0.768627 0 0 0 0 0.941176 0 0 0 1 0"/>
<feBlend mode="normal" in2="BackgroundImageFix" result="effect1_dropShadow_16_51"/>
<feBlend mode="normal" in="SourceGraphic" in2="effect1_dropShadow_16_51" result="shape"/>
</filter>
</defs>
</svg>
