<svg width="178" height="148" viewBox="0 0 178 148" fill="none" xmlns="http://www.w3.org/2000/svg">
<g filter="url(#filter0_d_30_380)">
<path d="M69.64 63.44C73.9493 63.44 77.4053 64.6987 80.008 67.216C82.6107 69.7333 83.912 73.4667 83.912 78.416V98H75.912V79.44C75.912 76.4533 75.208 74.2133 73.8 72.72C72.392 71.184 70.3867 70.416 67.784 70.416C64.84 70.416 62.5147 71.312 60.808 73.104C59.1013 74.8533 58.248 77.392 58.248 80.72V98H50.248V50.512H58.248V67.792C59.5707 66.384 61.192 65.3173 63.112 64.592C65.0747 63.824 67.2507 63.44 69.64 63.44ZM113.453 63.44C117.762 63.44 121.218 64.6987 123.821 67.216C126.423 69.7333 127.725 73.4667 127.725 78.416V98H119.725V79.44C119.725 76.4533 119.021 74.2133 117.613 72.72C116.205 71.184 114.199 70.416 111.597 70.416C108.653 70.416 106.327 71.312 104.621 73.104C102.914 74.8533 102.061 77.392 102.061 80.72V98H94.0605V50.512H102.061V67.792C103.383 66.384 105.005 65.3173 106.925 64.592C108.887 63.824 111.063 63.44 113.453 63.44Z" fill="#48D3F2"/>
</g>
<defs>
<filter id="filter0_d_30_380" x="0.248001" y="0.511963" width="177.477" height="147.488" filterUnits="userSpaceOnUse" color-interpolation-filters="sRGB">
<feFlood flood-opacity="0" result="BackgroundImageFix"/>
<feColorMatrix in="SourceAlpha" type="matrix" values="0 0 0 0 0 0 0 0 0 0 0 0 0 0 0 0 0 0 127 0" result="hardAlpha"/>
<feOffset/>
<feGaussianBlur stdDeviation="25"/>
<feComposite in2="hardAlpha" operator="out"/>
<feColorMatrix type="matrix" values="0 0 0 0 0 0 0 0 0 0.768627 0 0 0 0 0.941176 0 0 0 1 0"/>
<feBlend mode="normal" in2="BackgroundImageFix" result="effect1_dropShadow_30_380"/>
<feBlend mode="normal" in="SourceGraphic" in2="effect1_dropShadow_30_380" result="shape"/>
</filter>
</defs>
</svg>
