<svg width="128" height="128" viewBox="0 0 128 128" fill="none" xmlns="http://www.w3.org/2000/svg">
<path d="M88.7273 40.7273C72.6604 40.7273 59.6364 53.7513 59.6364 69.8182V98.9091C59.6364 114.976 72.6604 128 88.7273 128C104.794 128 117.818 114.976 117.818 98.9091V69.8182C117.818 53.7513 104.794 40.7273 88.7273 40.7273ZM112 98.9091C112 111.761 101.583 122.182 88.7273 122.182C75.872 122.182 65.4545 111.761 65.4545 98.9091V69.8182C65.4545 56.9658 75.872 46.5454 88.7273 46.5454C101.583 46.5454 112 56.9658 112 69.8182V98.9091Z" fill="#00C4F0"/>
<path fill-rule="evenodd" clip-rule="evenodd" d="M88.7273 52.3636C85.5156 52.3636 82.9091 54.9702 82.9091 58.1818V66.9091C82.9091 70.1207 85.5156 72.7273 88.7273 72.7273C91.9389 72.7273 94.5455 70.1207 94.5455 66.9091V58.1818C94.5455 54.9702 91.9389 52.3636 88.7273 52.3636ZM85.8182 40.7273H91.6364V32C91.6364 22.3622 83.8196 14.5455 74.1818 14.5455H27.6364C21.2102 14.5455 16 9.33527 16 2.90909V0H10.1818V2.90909C10.1818 12.5498 17.9985 20.3636 27.6364 20.3636H74.1818C80.608 20.3636 85.8182 25.5738 85.8182 32V40.7273Z" fill="#00C4F0"/>
<path d="M88.7273 72.7045V88.25V96.0227" stroke="#00C4F0" stroke-linecap="round"/>
<path d="M88.7273 96L93.0909 93.0909" stroke="#00C4F0" stroke-linecap="round"/>
<path d="M88.7273 96L84.3636 93.0909" stroke="#00C4F0" stroke-linecap="round"/>
</svg>
