<svg width="151" height="198" viewBox="0 0 151 198" fill="none" xmlns="http://www.w3.org/2000/svg">
<g filter="url(#filter0_d_83_3)">
<path fill-rule="evenodd" clip-rule="evenodd" d="M90.8272 144.878C90.8276 145.253 90.7671 145.625 90.6494 145.972C90.5316 146.32 90.3587 146.635 90.1407 146.901C89.9227 147.166 89.6639 147.377 89.379 147.52C89.0941 147.664 88.7888 147.737 88.4805 147.737L61.964 147.737C61.6557 147.737 61.3504 147.664 61.0655 147.52C60.7806 147.377 60.5217 147.166 60.3037 146.901C60.0857 146.635 59.9129 146.32 59.7951 145.972C59.6773 145.625 59.6169 145.253 59.6173 144.878L59.6173 129.514L51.3839 112.786C50.7567 111.512 50.412 110.062 50.3835 108.577C50.355 107.093 50.6438 105.624 51.2215 104.317L75.2222 50L99.2263 104.321C99.8028 105.628 100.091 107.094 100.062 108.577C100.034 110.061 99.6899 111.509 99.0639 112.782L90.8272 129.506L90.8272 144.878ZM87.1547 125.863L95.0433 109.846C95.2528 109.421 95.3679 108.936 95.3772 108.441C95.3865 107.945 95.2897 107.455 95.0963 107.019L75.2255 62.0475L55.3481 107.027C55.1571 107.462 55.0619 107.95 55.0718 108.443C55.0816 108.937 55.1963 109.418 55.4045 109.842L63.2931 125.867H87.158L87.1547 125.863Z" fill="#48D3F2"/>
<path fill-rule="evenodd" clip-rule="evenodd" d="M75.0235 62.5041L71.9078 100.452C71.2523 101.251 70.8058 102.268 70.6249 103.376C70.4441 104.484 70.5369 105.633 70.8917 106.676C71.2465 107.72 71.8473 108.612 72.6181 109.239C73.389 109.867 74.2953 110.202 75.2224 110.202C76.1495 110.202 77.0558 109.867 77.8266 109.239C78.5975 108.612 79.1983 107.72 79.5531 106.676C79.9078 105.633 80.0007 104.484 79.8198 103.376C79.6389 102.268 79.1925 101.251 78.5369 100.452L75.4213 62.5041L75.2224 62.0518L75.0235 62.5041Z" fill="#48D3F2"/>
</g>
<defs>
<filter id="filter0_d_83_3" x="0.381561" y="0" width="149.683" height="197.737" filterUnits="userSpaceOnUse" color-interpolation-filters="sRGB">
<feFlood flood-opacity="0" result="BackgroundImageFix"/>
<feColorMatrix in="SourceAlpha" type="matrix" values="0 0 0 0 0 0 0 0 0 0 0 0 0 0 0 0 0 0 127 0" result="hardAlpha"/>
<feOffset/>
<feGaussianBlur stdDeviation="25"/>
<feComposite in2="hardAlpha" operator="out"/>
<feColorMatrix type="matrix" values="0 0 0 0 0 0 0 0 0 0.768627 0 0 0 0 0.941176 0 0 0 1 0"/>
<feBlend mode="normal" in2="BackgroundImageFix" result="effect1_dropShadow_83_3"/>
<feBlend mode="normal" in="SourceGraphic" in2="effect1_dropShadow_83_3" result="shape"/>
</filter>
</defs>
</svg>
